# Blender 3.3.1
# www.blender.org
mtllib Woodlog_to_texture.mtl
o Wood_log
v -0.149359 0.247734 0.818491
v -0.149359 -0.041359 0.818491
v -0.149359 0.247734 -0.818259
v -0.149359 -0.041359 -0.818259
v 0.149359 0.247734 0.818491
v 0.149359 -0.041359 0.818491
v 0.149359 0.247734 -0.818259
v 0.149359 -0.041359 -0.818259
v -0.121348 0.220625 -0.000001
v -0.182088 0.103188 0.818588
v -0.121348 -0.014250 -0.000001
v -0.182088 0.103188 -0.818739
v 0.000000 0.279409 -0.818739
v -0.000000 -0.073034 -0.818739
v 0.182088 0.103188 -0.818739
v 0.121348 0.220625 -0.000001
v 0.121348 -0.014250 -0.000001
v 0.182088 0.103188 0.818588
v -0.000000 0.279409 0.818588
v -0.000000 -0.073034 0.818588
v -0.167122 0.103188 -0.000001
v 0.000000 0.103188 -0.818978
v 0.167122 0.103188 -0.000001
v -0.000000 0.103188 0.818636
v -0.000000 0.264925 -0.000001
v -0.000000 -0.058550 -0.000001
v -0.128977 0.228009 0.404304
v -0.128977 -0.021634 0.404304
v 0.128977 0.228009 0.404304
v 0.128977 -0.021634 0.404304
v -0.165966 0.103188 0.404352
v 0.165966 0.103188 0.404352
v -0.000000 0.263806 0.404352
v -0.000000 -0.057431 0.404352
v -0.128977 0.228009 -0.404190
v -0.128977 -0.021634 -0.404190
v 0.128977 0.228009 -0.404190
v 0.128977 -0.021634 -0.404190
v -0.165966 0.103188 -0.404427
v 0.165966 0.103188 -0.404427
v 0.000000 0.263806 -0.404427
v -0.000000 -0.057431 -0.404427
v 0.220796 0.247734 0.818491
v 0.220796 -0.041359 0.818491
v 0.220796 0.247734 -0.818259
v 0.220796 -0.041359 -0.818259
v 0.519513 0.247734 0.818491
v 0.519513 -0.041359 0.818491
v 0.519513 0.247734 -0.818259
v 0.519513 -0.041359 -0.818259
v 0.248807 0.220625 -0.000001
v 0.188066 0.103188 0.818588
v 0.248807 -0.014250 -0.000001
v 0.188066 0.103188 -0.818739
v 0.370155 0.279409 -0.818739
v 0.370155 -0.073034 -0.818739
v 0.552243 0.103188 -0.818739
v 0.491502 0.220625 -0.000001
v 0.491502 -0.014250 -0.000001
v 0.552243 0.103188 0.818588
v 0.370155 0.279409 0.818588
v 0.370155 -0.073034 0.818588
v 0.203033 0.103188 -0.000001
v 0.370155 0.103188 -0.818978
v 0.537277 0.103188 -0.000001
v 0.370155 0.103188 0.818636
v 0.370155 0.264925 -0.000001
v 0.370155 -0.058550 -0.000001
v 0.241178 0.228009 0.404304
v 0.241178 -0.021634 0.404304
v 0.499131 0.228009 0.404304
v 0.499131 -0.021634 0.404304
v 0.204189 0.103188 0.404352
v 0.536121 0.103188 0.404352
v 0.370155 0.263806 0.404352
v 0.370155 -0.057431 0.404352
v 0.241178 0.228009 -0.404190
v 0.241178 -0.021634 -0.404190
v 0.499131 0.228009 -0.404190
v 0.499131 -0.021634 -0.404190
v 0.204189 0.103188 -0.404427
v 0.536121 0.103188 -0.404427
v 0.370155 0.263806 -0.404427
v 0.370155 -0.057431 -0.404427
v 0.039109 0.529778 0.818491
v 0.039109 0.240686 0.818491
v 0.039109 0.529778 -0.818259
v 0.039109 0.240686 -0.818259
v 0.337826 0.529778 0.818491
v 0.337826 0.240686 0.818491
v 0.337826 0.529778 -0.818259
v 0.337826 0.240686 -0.818259
v 0.067120 0.502670 -0.000001
v 0.006379 0.385232 0.818588
v 0.067120 0.267794 -0.000001
v 0.006379 0.385232 -0.818739
v 0.188468 0.561453 -0.818739
v 0.188468 0.209010 -0.818739
v 0.370556 0.385232 -0.818739
v 0.309815 0.502670 -0.000001
v 0.309815 0.267794 -0.000001
v 0.370556 0.385232 0.818588
v 0.188468 0.561453 0.818588
v 0.188468 0.209010 0.818588
v 0.021346 0.385232 -0.109437
v 0.188468 0.385232 -0.818978
v 0.355589 0.385232 -0.000001
v 0.188468 0.385232 0.818636
v 0.188468 0.546969 -0.000001
v 0.188468 0.223495 -0.000001
v 0.059491 0.510053 0.404304
v 0.059491 0.260411 0.404304
v 0.317444 0.510053 0.404304
v 0.317444 0.260411 0.404304
v 0.022502 0.385232 0.404352
v 0.354434 0.385232 0.404352
v 0.188468 0.545851 0.404352
v 0.188468 0.224613 0.404352
v 0.059491 0.510053 -0.404190
v 0.059491 0.260411 -0.404190
v 0.317444 0.510053 -0.404190
v 0.317444 0.260411 -0.404190
v 0.022502 0.385232 -0.404427
v 0.354434 0.385232 -0.404427
v 0.188468 0.545851 -0.404427
v 0.188468 0.224613 -0.404427
v 0.065286 0.266019 0.097188
v 0.311649 0.504445 0.097188
v 0.021624 0.385232 0.097199
v 0.355312 0.385232 0.097199
v 0.188468 0.546700 0.097199
v 0.188468 0.223764 0.097199
v 0.065286 0.504445 0.097188
v 0.311649 0.266019 0.097188
v -0.214372 0.474421 0.167713
v -0.214650 0.474421 0.070513
v -0.168876 0.562404 0.070513
v -0.187746 0.577582 0.145839
v -0.096652 0.375304 -0.001353
v -0.096374 0.375304 0.095847
v -0.052712 0.494517 0.095836
v -0.050878 0.492742 -0.001353
v 0.066203 0.266907 0.048593
v 0.310732 0.503557 0.048593
v 0.037492 0.370908 0.044741
v 0.355450 0.385232 0.048599
v 0.188468 0.546835 0.048599
v 0.188468 0.223629 0.048599
v 0.061042 0.515453 0.050332
v 0.310732 0.266907 0.048593
v -0.238003 0.475024 0.127057
v -0.202652 0.597912 0.115525
v -0.048052 0.506275 0.049083
v -0.100255 0.359318 0.043163
v 0.022744 0.457505 0.818539
v 0.022744 0.457505 -0.818499
v 0.354191 0.457505 -0.818499
v 0.354191 0.457505 0.818539
v 0.072325 0.436355 -0.125626
v 0.188468 0.473343 -0.818858
v 0.332702 0.443951 -0.000001
v 0.188468 0.473343 0.818612
v 0.335939 0.447643 0.404328
v 0.040996 0.447643 0.404328
v 0.335939 0.447643 -0.404308
v 0.040996 0.447643 -0.404308
v 0.333480 0.444838 0.097193
v 0.010456 0.451066 0.112685
v -0.211689 0.543691 0.068671
v -0.223625 0.512346 0.161134
v -0.069682 0.424407 -0.017817
v -0.070618 0.444245 0.111756
v -0.243242 0.556869 0.136716
v 0.333091 0.444395 0.048596
vn -0.9462 0.3233 -0.0105
vn -0.9462 -0.3233 -0.0105
vn -0.9670 -0.2502 0.0486
vn -0.9670 0.2502 0.0486
vn -0.0024 0.0025 -1.0000
vn -0.0024 -0.0025 -1.0000
vn 0.0024 -0.0025 -1.0000
vn 0.0024 0.0025 -1.0000
vn 0.9463 0.3233 0.0105
vn 0.9463 -0.3233 0.0105
vn 0.9670 -0.2502 -0.0486
vn 0.9670 0.2502 -0.0486
vn 0.0005 0.0005 1.0000
vn 0.0005 -0.0005 1.0000
vn -0.0005 -0.0005 1.0000
vn -0.0005 0.0005 1.0000
vn -0.3047 0.9524 0.0103
vn 0.3047 0.9524 0.0103
vn 0.2353 0.9708 -0.0472
vn -0.2353 0.9708 -0.0472
vn 0.3047 -0.9524 0.0103
vn -0.3047 -0.9524 0.0103
vn -0.2353 -0.9708 -0.0472
vn 0.2353 -0.9708 -0.0472
vn 0.3047 -0.9524 -0.0103
vn -0.3047 -0.9524 -0.0103
vn -0.3047 0.9524 -0.0103
vn 0.3047 0.9524 -0.0103
vn 0.9462 0.3233 -0.0105
vn 0.9462 -0.3233 -0.0105
vn -0.9670 -0.2502 -0.0486
vn -0.9670 0.2502 -0.0486
vn -0.2352 -0.9708 0.0472
vn 0.2352 -0.9708 0.0472
vn 0.2352 0.9708 0.0472
vn -0.2352 0.9708 0.0472
vn 0.9670 -0.2502 0.0486
vn 0.9670 0.2502 0.0486
vn -0.9463 0.3233 0.0105
vn -0.9463 -0.3233 0.0105
vn -0.7126 -0.6399 -0.2875
vn -0.9540 -0.2956 0.0495
vn -0.9672 0.2502 0.0431
vn -0.0018 0.0024 -1.0000
vn 0.0018 0.0024 -1.0000
vn 0.9463 0.3233 0.0039
vn 0.9672 0.2503 -0.0431
vn 0.0004 0.0005 1.0000
vn -0.0004 0.0005 1.0000
vn 0.2957 -0.9552 -0.0102
vn -0.2957 -0.9552 -0.0102
vn -0.2957 0.9552 -0.0102
vn 0.2957 0.9552 -0.0102
vn 0.9495 0.3138 -0.0039
vn 0.9494 -0.3138 -0.0105
vn -0.9672 0.2503 -0.0431
vn 0.9672 0.2502 0.0431
vn -0.8482 0.5268 0.0550
vn -0.9479 -0.3183 0.0121
vn 0.9372 -0.3487 -0.0107
vn 0.9372 0.3487 -0.0040
vn 0.3291 0.9443 -0.0104
vn -0.2790 0.9523 0.1236
vn -0.3291 -0.9443 -0.0104
vn 0.3291 -0.9443 -0.0104
vn -0.9494 -0.3138 -0.0105
vn -0.9973 0.0506 0.0526
vn -0.9148 0.0071 -0.4039
vn 0.5717 0.7816 0.2494
vn 0.3351 -0.1332 0.9327
vn -0.2673 0.3758 -0.8873
vn -0.3194 0.7029 -0.6355
vn 0.0080 -0.2277 0.9737
vn -0.0842 0.9683 0.2351
vn 0.0198 -0.9882 -0.1520
vn 0.0771 -0.9556 0.2843
vn -0.0782 0.9640 -0.2543
vn 0.3468 0.8752 -0.3372
vn -0.8626 -0.1170 0.4921
vn 0.3383 -0.9410 -0.0105
vn -0.3383 -0.9410 -0.0105
vn -0.2891 0.9472 -0.1389
vn 0.3383 0.9410 -0.0105
vn 0.9336 0.3583 -0.0040
vn 0.9335 -0.3583 -0.0107
vn -0.9443 -0.3082 -0.1159
vn -0.5094 -0.8123 0.2840
vn 0.9334 0.3583 -0.0174
vn -0.3204 0.5055 0.8011
vn -0.0373 0.3137 0.9488
vn -0.6307 0.2514 -0.7341
vn -0.5204 -0.0005 -0.8539
vn 0.3631 0.0817 0.9281
vn -0.5594 0.5934 -0.5788
vn -0.8424 0.5379 0.0329
vn 0.9371 0.3487 -0.0174
vn -0.9972 0.0461 0.0582
vn 0.9667 0.2501 0.0540
vn -0.9667 0.2502 -0.0540
vn 0.9494 0.3138 -0.0171
vn -0.0006 0.0005 1.0000
vn 0.0006 0.0005 1.0000
vn 0.9667 0.2502 -0.0540
vn 0.9462 0.3232 0.0171
vn 0.0030 0.0025 -1.0000
vn -0.0030 0.0025 -1.0000
vn -0.9667 0.2501 0.0540
vt 0.250000 0.500389
vt 0.374806 0.625195
vt 0.250000 0.999611
vt 0.125195 0.500389
vt 0.000389 0.625194
vt 0.125195 0.999611
vt 0.250000 0.874805
vt 0.374805 0.750000
vt 0.125195 0.874805
vt 0.000389 0.750000
vt 0.250000 0.625195
vt 0.125195 0.625195
vt 0.250000 0.750000
vt 0.125195 0.750000
vt 0.374806 0.687597
vt 0.250000 0.937208
vt 0.187597 0.500389
vt 0.187597 0.999611
vt 0.000389 0.687597
vt 0.125195 0.937208
vt 0.187597 0.874805
vt 0.250000 0.812403
vt 0.312403 0.750000
vt 0.125195 0.812403
vt 0.062792 0.750000
vt 0.187597 0.750000
vt 0.250000 0.687597
vt 0.125195 0.687597
vt 0.187597 0.625195
vt 0.250000 0.562792
vt 0.312403 0.625195
vt 0.125195 0.562792
vt 0.062792 0.625195
vt 0.187597 0.937208
vt 0.187597 0.812403
vt 0.187597 0.687597
vt 0.187597 0.562792
vt 0.312403 0.687597
vt 0.062792 0.687597
vt 0.374806 0.656396
vt 0.250000 0.968410
vt 0.000389 0.656396
vt 0.125195 0.968410
vt 0.250000 0.656396
vt 0.125195 0.656396
vt 0.187597 0.968410
vt 0.187597 0.656396
vt 0.312403 0.656396
vt 0.062792 0.656396
vt 0.374806 0.718799
vt 0.250000 0.906007
vt 0.000389 0.718799
vt 0.125195 0.906007
vt 0.250000 0.718799
vt 0.125195 0.718799
vt 0.187597 0.906007
vt 0.187597 0.718799
vt 0.312403 0.718799
vt 0.062792 0.718799
vt 0.250000 0.000389
vt 0.374806 0.125195
vt 0.250000 0.499611
vt 0.125195 0.000389
vt 0.000389 0.125194
vt 0.125195 0.499611
vt 0.250000 0.374805
vt 0.374805 0.250000
vt 0.125195 0.374805
vt 0.000389 0.250000
vt 0.250000 0.125195
vt 0.125195 0.125195
vt 0.250000 0.250000
vt 0.125195 0.250000
vt 0.374806 0.187597
vt 0.250000 0.437208
vt 0.187597 0.000389
vt 0.187597 0.499611
vt 0.000389 0.187597
vt 0.125195 0.437208
vt 0.187597 0.374805
vt 0.250000 0.312403
vt 0.312403 0.250000
vt 0.125195 0.312403
vt 0.062792 0.250000
vt 0.187597 0.250000
vt 0.250000 0.187597
vt 0.125195 0.187597
vt 0.187597 0.125195
vt 0.250000 0.062792
vt 0.312403 0.125195
vt 0.125195 0.062792
vt 0.062792 0.125195
vt 0.187597 0.437208
vt 0.187597 0.312403
vt 0.187597 0.187597
vt 0.187597 0.062792
vt 0.312403 0.187597
vt 0.062792 0.187597
vt 0.374806 0.156396
vt 0.250000 0.468410
vt 0.000389 0.156396
vt 0.125195 0.468410
vt 0.250000 0.156396
vt 0.125195 0.156396
vt 0.187597 0.468410
vt 0.187597 0.156396
vt 0.312403 0.156396
vt 0.062792 0.156396
vt 0.374806 0.218799
vt 0.250000 0.406007
vt 0.000389 0.218799
vt 0.125195 0.406007
vt 0.250000 0.218799
vt 0.125195 0.218799
vt 0.187597 0.406007
vt 0.187597 0.218799
vt 0.312403 0.218799
vt 0.062792 0.218799
vt 0.750000 0.125195
vt 0.625195 0.499611
vt 0.625195 0.000389
vt 0.500389 0.000389
vt 0.375584 0.125194
vt 0.500389 0.499611
vt 0.750000 0.250000
vt 0.625195 0.374805
vt 0.500389 0.374805
vt 0.375584 0.250000
vt 0.625195 0.125195
vt 0.500389 0.125195
vt 0.625195 0.250000
vt 0.500389 0.250000
vt 0.750000 0.187597
vt 0.625195 0.437208
vt 0.562792 0.000389
vt 0.562792 0.499611
vt 0.500389 0.437208
vt 0.375584 0.187597
vt 0.562792 0.374805
vt 0.687597 0.250000
vt 0.625195 0.312403
vt 0.500389 0.312403
vt 0.437987 0.250000
vt 0.562792 0.250000
vt 0.625195 0.187597
vt 0.500389 0.187597
vt 0.562792 0.125195
vt 0.687597 0.125195
vt 0.625195 0.062792
vt 0.500389 0.062792
vt 0.437987 0.125195
vt 0.562792 0.437208
vt 0.562792 0.312403
vt 0.562792 0.187597
vt 0.562792 0.062792
vt 0.687597 0.187597
vt 0.437987 0.187597
vt 0.750000 0.156396
vt 0.625195 0.468410
vt 0.375584 0.156396
vt 0.500389 0.468410
vt 0.625195 0.156396
vt 0.500389 0.156396
vt 0.562792 0.468410
vt 0.562792 0.156396
vt 0.687597 0.156396
vt 0.437987 0.156396
vt 0.750000 0.218799
vt 0.625195 0.406007
vt 0.375584 0.218799
vt 0.500389 0.406007
vt 0.625195 0.218799
vt 0.500389 0.218799
vt 0.562792 0.406007
vt 0.562792 0.218799
vt 0.687597 0.218799
vt 0.437987 0.218799
vt 0.375584 0.180097
vt 0.500389 0.444708
vt 0.625195 0.180097
vt 0.562792 0.444708
vt 0.562792 0.180097
vt 0.687597 0.180097
vt 0.437987 0.180097
vt 0.750000 0.180097
vt 0.625195 0.444708
vt 0.500389 0.180097
vt 0.562792 0.444708
vt 0.562792 0.437208
vt 0.750000 0.187597
vt 0.625195 0.437208
vt 0.750000 0.180097
vt 0.625195 0.444708
vt 0.562792 0.437208
vt 0.562792 0.444708
vt 0.750000 0.180097
vt 0.625195 0.444708
vt 0.625195 0.437208
vt 0.750000 0.187597
vt 0.375584 0.183847
vt 0.500389 0.440958
vt 0.625195 0.183847
vt 0.562792 0.440958
vt 0.562792 0.183847
vt 0.687597 0.183847
vt 0.437987 0.183847
vt 0.750000 0.183847
vt 0.500389 0.183847
vt 0.562792 0.440958
vt 0.750000 0.183847
vt 0.625195 0.440958
vt 0.750000 0.183847
vt 0.562792 0.440958
vt 0.593993 0.499611
vt 0.593993 0.000389
vt 0.593993 0.374805
vt 0.593993 0.250000
vt 0.593993 0.125195
vt 0.593993 0.437208
vt 0.593993 0.312403
vt 0.593993 0.187597
vt 0.593993 0.062792
vt 0.593993 0.156396
vt 0.593993 0.468410
vt 0.593993 0.218799
vt 0.593993 0.406007
vt 0.593993 0.180097
vt 0.593993 0.444708
vt 0.593993 0.437208
vt 0.593993 0.444708
vt 0.593993 0.437208
vt 0.593993 0.444708
vt 0.593993 0.440958
vt 0.593993 0.183847
s 0
f 27/41/1 9/16/1 21/34/1 31/46/1
f 31/46/2 21/34/2 11/20/2 28/43/2
f 39/56/3 12/21/3 4/9/3 36/53/3
f 35/51/4 3/7/4 12/21/4 39/56/4
f 3/7/5 13/22/5 22/35/5 12/21/5
f 12/21/6 22/35/6 14/24/6 4/9/6
f 22/35/7 15/26/7 8/14/7 14/24/7
f 13/22/8 7/13/8 15/26/8 22/35/8
f 37/54/9 16/27/9 23/36/9 40/57/9
f 40/57/10 23/36/10 17/28/10 38/55/10
f 32/47/11 18/29/11 6/12/11 30/45/11
f 29/44/12 5/11/12 18/29/12 32/47/12
f 5/11/13 19/30/13 24/37/13 18/29/13
f 18/29/14 24/37/14 20/32/14 6/12/14
f 24/37/15 10/17/15 2/4/15 20/32/15
f 19/30/16 1/1/16 10/17/16 24/37/16
f 35/50/17 9/15/17 25/38/17 41/58/17
f 41/58/18 25/38/18 16/27/18 37/54/18
f 33/48/19 19/31/19 5/11/19 29/44/19
f 27/40/20 1/2/20 19/31/20 33/48/20
f 38/55/21 17/28/21 26/39/21 42/59/21
f 42/59/22 26/39/22 11/19/22 36/52/22
f 34/49/23 20/33/23 2/5/23 28/42/23
f 30/45/24 6/12/24 20/33/24 34/49/24
f 17/28/25 30/45/25 34/49/25 26/39/25
f 26/39/26 34/49/26 28/42/26 11/19/26
f 9/15/27 27/40/27 33/48/27 25/38/27
f 25/38/28 33/48/28 29/44/28 16/27/28
f 16/27/29 29/44/29 32/47/29 23/36/29
f 23/36/30 32/47/30 30/45/30 17/28/30
f 10/18/31 31/46/31 28/43/31 2/6/31
f 1/3/32 27/41/32 31/46/32 10/18/32
f 14/25/33 42/59/33 36/52/33 4/10/33
f 8/14/34 38/55/34 42/59/34 14/25/34
f 13/23/35 41/58/35 37/54/35 7/13/35
f 3/8/36 35/50/36 41/58/36 13/23/36
f 15/26/37 40/57/37 38/55/37 8/14/37
f 7/13/38 37/54/38 40/57/38 15/26/38
f 9/16/39 35/51/39 39/56/39 21/34/39
f 21/34/40 39/56/40 36/53/40 11/20/40
f 69/100/1 51/75/1 63/93/1 73/105/1
f 73/105/2 63/93/2 53/79/2 70/102/2
f 81/115/3 54/80/3 46/68/3 78/112/3
f 77/110/4 45/66/4 54/80/4 81/115/4
f 45/66/5 55/81/5 64/94/5 54/80/5
f 54/80/6 64/94/6 56/83/6 46/68/6
f 64/94/7 57/85/7 50/73/7 56/83/7
f 55/81/8 49/72/8 57/85/8 64/94/8
f 79/113/9 58/86/9 65/95/9 82/116/9
f 82/116/10 65/95/10 59/87/10 80/114/10
f 74/106/11 60/88/11 48/71/11 72/104/11
f 71/103/12 47/70/12 60/88/12 74/106/12
f 47/70/13 61/89/13 66/96/13 60/88/13
f 60/88/14 66/96/14 62/91/14 48/71/14
f 66/96/15 52/76/15 44/63/15 62/91/15
f 61/89/16 43/60/16 52/76/16 66/96/16
f 77/109/17 51/74/17 67/97/17 83/117/17
f 83/117/18 67/97/18 58/86/18 79/113/18
f 75/107/19 61/90/19 47/70/19 71/103/19
f 69/99/20 43/61/20 61/90/20 75/107/20
f 80/114/21 59/87/21 68/98/21 84/118/21
f 84/118/22 68/98/22 53/78/22 78/111/22
f 76/108/23 62/92/23 44/64/23 70/101/23
f 72/104/24 48/71/24 62/92/24 76/108/24
f 59/87/25 72/104/25 76/108/25 68/98/25
f 68/98/26 76/108/26 70/101/26 53/78/26
f 51/74/27 69/99/27 75/107/27 67/97/27
f 67/97/28 75/107/28 71/103/28 58/86/28
f 58/86/29 71/103/29 74/106/29 65/95/29
f 65/95/30 74/106/30 72/104/30 59/87/30
f 52/77/31 73/105/31 70/102/31 44/65/31
f 43/62/32 69/100/32 73/105/32 52/77/32
f 56/84/33 84/118/33 78/111/33 46/69/33
f 50/73/34 80/114/34 84/118/34 56/84/34
f 55/82/35 83/117/35 79/113/35 49/72/35
f 45/67/36 77/109/36 83/117/36 55/82/36
f 57/85/37 82/116/37 80/114/37 50/73/37
f 49/72/38 79/113/38 82/116/38 57/85/38
f 51/75/39 77/110/39 81/115/39 63/93/39
f 63/93/40 81/115/40 78/112/40 53/79/40
f 154/213/41 151/209/41 136/189/41 139/194/41
f 145/203/42 105/152/42 95/137/42 143/201/42
f 123/174/3 96/139/3 88/127/3 120/171/3
f 166/226/43 156/216/43 96/139/43 123/174/43
f 156/216/44 160/220/44 106/153/44 96/139/44
f 96/139/6 106/153/6 98/142/6 88/127/6
f 106/153/7 99/144/7 92/132/7 98/142/7
f 160/220/45 157/217/45 99/144/45 106/153/45
f 165/225/46 161/221/46 107/154/46 124/175/46
f 124/175/10 107/154/10 101/146/10 122/173/10
f 116/165/11 102/147/11 90/130/11 114/163/11
f 163/223/47 158/218/47 102/147/47 116/165/47
f 158/218/48 162/222/48 108/155/48 102/147/48
f 102/147/14 108/155/14 104/150/14 90/130/14
f 108/155/15 94/135/15 86/122/15 104/150/15
f 162/222/49 155/215/49 94/135/49 108/155/49
f 119/168/17 93/133/17 109/156/17 125/176/17
f 125/176/18 109/156/18 100/145/18 121/172/18
f 117/166/19 103/148/19 89/129/19 113/162/19
f 111/158/20 85/119/20 103/148/20 117/166/20
f 122/173/21 101/146/21 110/157/21 126/177/21
f 126/177/22 110/157/22 95/138/22 120/170/22
f 118/167/23 104/151/23 86/123/23 112/160/23
f 114/163/24 90/130/24 104/151/24 118/167/24
f 134/187/50 114/163/50 118/167/50 132/184/50
f 132/184/51 118/167/51 112/160/51 127/178/51
f 133/185/52 111/158/52 117/166/52 131/183/52
f 131/183/53 117/166/53 113/162/53 128/180/53
f 167/227/54 163/223/54 116/165/54 130/182/54
f 130/182/55 116/165/55 114/163/55 134/187/55
f 94/136/31 115/164/31 112/161/31 86/124/31
f 155/214/56 164/224/56 115/164/56 94/136/56
f 98/143/33 126/177/33 120/170/33 88/128/33
f 92/132/34 122/173/34 126/177/34 98/143/34
f 97/140/35 125/176/35 121/172/35 91/131/35
f 87/125/36 119/168/36 125/176/36 97/140/36
f 99/144/37 124/175/37 122/173/37 92/132/37
f 157/217/57 165/225/57 124/175/57 99/144/57
f 159/219/58 166/226/58 123/174/58 105/152/58
f 105/152/59 123/174/59 120/171/59 95/137/59
f 146/204/60 130/182/60 134/187/60 150/208/60
f 174/234/61 167/227/61 130/182/61 146/204/61
f 147/205/62 131/183/62 128/180/62 144/202/62
f 149/207/63 133/185/63 131/183/63 147/205/63
f 148/206/64 132/184/64 127/178/64 143/200/64
f 150/208/65 134/187/65 132/184/65 148/206/65
f 115/164/66 129/181/66 127/179/66 112/161/66
f 164/224/67 168/228/67 129/181/67 115/164/67
f 173/233/68 169/229/68 136/189/68 151/209/68
f 153/212/69 152/210/69 138/192/69 141/196/69
f 172/232/70 170/230/70 135/188/70 140/195/70
f 171/231/71 169/229/71 137/191/71 142/198/71
f 159/219/72 171/231/72 142/198/72 93/134/72
f 168/228/73 172/232/73 140/195/73 129/181/73
f 149/207/74 153/212/74 141/196/74 133/185/74
f 145/203/75 154/213/75 139/194/75 105/152/75
f 129/181/76 140/195/76 154/213/76 145/203/76
f 93/133/77 142/199/77 153/212/77 149/207/77
f 142/199/78 137/190/78 152/210/78 153/212/78
f 170/230/79 173/233/79 151/209/79 135/188/79
f 101/146/80 150/208/80 148/206/80 110/157/80
f 110/157/81 148/206/81 143/200/81 95/138/81
f 93/133/82 149/207/82 147/205/82 109/156/82
f 109/156/83 147/205/83 144/202/83 100/145/83
f 161/221/84 174/234/84 146/204/84 107/154/84
f 107/154/85 146/204/85 150/208/85 101/146/85
f 129/181/86 145/203/86 143/201/86 127/179/86
f 140/195/87 135/188/87 151/209/87 154/213/87
f 100/145/88 144/202/88 174/234/88 161/221/88
f 138/193/89 152/211/89 173/233/89 170/230/89
f 133/186/90 141/197/90 172/232/90 168/228/90
f 105/152/91 139/194/91 171/231/91 159/219/91
f 139/194/92 136/189/92 169/229/92 171/231/92
f 141/197/93 138/193/93 170/230/93 172/232/93
f 152/211/94 137/191/94 169/229/94 173/233/94
f 111/159/95 133/186/95 168/228/95 164/224/95
f 144/202/96 128/180/96 167/227/96 174/234/96
f 93/134/97 119/169/97 166/226/97 159/219/97
f 91/131/98 121/172/98 165/225/98 157/217/98
f 85/120/99 111/159/99 164/224/99 155/214/99
f 128/180/100 113/162/100 163/223/100 167/227/100
f 103/149/101 85/121/101 155/215/101 162/222/101
f 89/129/102 103/149/102 162/222/102 158/218/102
f 113/162/103 89/129/103 158/218/103 163/223/103
f 121/172/104 100/145/104 161/221/104 165/225/104
f 97/141/105 91/131/105 157/217/105 160/220/105
f 87/126/106 97/141/106 160/220/106 156/216/106
f 119/169/107 87/126/107 156/216/107 166/226/107
