# Blender 3.3.1
# www.blender.org
mtllib Axe_to_texture.mtl
o Cube.001
v 1.195989 1.608725 -1.530198
v 1.192980 2.027863 -1.581394
v 1.195989 1.608725 -1.885304
v 1.192980 2.027863 -1.834108
v 1.248065 1.608725 -1.530198
v 1.251074 2.027863 -1.581394
v 1.248065 1.608725 -1.885304
v 1.251074 2.027863 -1.834108
v 1.207880 1.801807 -1.613053
v 1.202837 1.896300 -1.616688
v 1.200996 1.970937 -1.610628
v 1.200996 1.970937 -1.790709
v 1.202837 1.896300 -1.790233
v 1.207880 1.801807 -1.804050
v 1.243058 1.970937 -1.790709
v 1.241217 1.896300 -1.790233
v 1.236173 1.801807 -1.804050
v 1.243058 1.970937 -1.610628
v 1.241217 1.896300 -1.616688
v 1.236173 1.801807 -1.613053
v 1.203592 1.705266 -1.833458
v 1.240461 1.705266 -1.833458
v 1.240461 1.705266 -1.582044
v 1.203592 1.705266 -1.582044
v 1.195989 1.582237 -1.766935
v 1.195989 1.582237 -1.648566
v 1.192980 2.027863 -1.665632
v 1.192980 2.027863 -1.749870
v 1.248065 1.582237 -1.648567
v 1.248065 1.582237 -1.766935
v 1.251074 2.027863 -1.749870
v 1.251074 2.027863 -1.665632
v 1.236173 1.801807 -1.746183
v 1.236173 1.801807 -1.669319
v 1.241217 1.896300 -1.746183
v 1.241217 1.896300 -1.669319
v 1.243058 1.970937 -1.749870
v 1.243058 1.970937 -1.665632
v 1.207880 1.801807 -1.669319
v 1.207880 1.801807 -1.746183
v 1.202837 1.896300 -1.669319
v 1.202837 1.896300 -1.746183
v 1.200996 1.970937 -1.665632
v 1.200996 1.970937 -1.749870
v 1.203592 1.705266 -1.665849
v 1.203592 1.705266 -1.749653
v 1.240461 1.705266 -1.749653
v 1.240461 1.705266 -1.665849
v 1.195989 1.591883 -1.589382
v 1.251074 2.027863 -1.623513
v 1.236173 1.801807 -1.630887
v 1.241217 1.896300 -1.630887
v 1.243058 1.970937 -1.623513
v 1.240461 1.705266 -1.623946
v 1.192980 2.027863 -1.623513
v 1.248065 1.591883 -1.589382
v 1.207880 1.801807 -1.630887
v 1.202837 1.896300 -1.630887
v 1.200996 1.970937 -1.623513
v 1.203592 1.705266 -1.623946
v 1.192980 2.027863 -1.791989
v 1.248065 1.591883 -1.826120
v 1.207880 1.801807 -1.775116
v 1.202837 1.896300 -1.768208
v 1.200996 1.970937 -1.770401
v 1.203592 1.705266 -1.791556
v 1.195989 1.591883 -1.826120
v 1.251074 2.027863 -1.791989
v 1.236173 1.801807 -1.775116
v 1.241217 1.896300 -1.768208
v 1.243058 1.970937 -1.770401
v 1.240461 1.705266 -1.791556
v 1.195989 1.578638 -1.707751
v 1.192980 2.027863 -1.707751
v 1.248065 1.578638 -1.707751
v 1.251074 2.027863 -1.707751
v 1.236173 1.801807 -1.707751
v 1.241217 1.896300 -1.707751
v 1.243058 1.970937 -1.707751
v 1.207880 1.801807 -1.707751
v 1.202837 1.896300 -1.707751
v 1.200996 1.970937 -1.707751
v 1.203592 1.705266 -1.707751
v 1.240461 1.705266 -1.707751
v 1.169271 1.933618 -1.609686
v 1.169271 1.933618 -1.794324
v 1.274783 1.933618 -1.794324
v 1.274783 1.933618 -1.609686
v 1.169271 1.933618 -1.665885
v 1.169271 1.933618 -1.750001
v 1.274783 1.933618 -1.750001
v 1.274783 1.933618 -1.665885
v 1.169271 1.933618 -1.623827
v 1.274783 1.933618 -1.623827
v 1.274783 1.933618 -1.772221
v 1.169271 1.933618 -1.772221
v 1.274783 1.933618 -1.707943
v 1.169271 1.933618 -1.707943
v 1.173769 1.952277 -1.610157
v 1.173769 1.952277 -1.792517
v 1.270285 1.952277 -1.792517
v 1.270285 1.952277 -1.610157
v 1.173769 1.952277 -1.665758
v 1.173769 1.952277 -1.749936
v 1.270285 1.952277 -1.749936
v 1.270285 1.952277 -1.665758
v 1.173769 1.952277 -1.623670
v 1.270285 1.952277 -1.623670
v 1.270285 1.952277 -1.771311
v 1.173769 1.952277 -1.771311
v 1.270285 1.952277 -1.707847
v 1.173769 1.952277 -1.707847
v 1.174973 1.914959 -1.792279
v 1.269081 1.914959 -1.792279
v 1.269081 1.914959 -1.613187
v 1.174973 1.914959 -1.667602
v 1.174973 1.914959 -1.748092
v 1.269081 1.914959 -1.748092
v 1.269081 1.914959 -1.667602
v 1.174973 1.914959 -1.627357
v 1.269081 1.914959 -1.627357
v 1.269081 1.914959 -1.770214
v 1.174973 1.914959 -1.770214
v 1.269081 1.914959 -1.707847
v 1.174973 1.914959 -1.707847
v 1.174973 1.914959 -1.613187
v 1.222027 1.608725 -1.885304
v 1.222027 2.027863 -1.834108
v 1.222027 1.608725 -1.530198
v 1.222027 2.027863 -1.581394
v 1.222027 1.801807 -1.613053
v 1.222027 1.896300 -1.615677
v 1.222027 1.970937 -1.609617
v 1.222027 1.801807 -1.804050
v 1.222027 1.896300 -1.790233
v 1.222027 1.970937 -1.790709
v 1.222027 1.705266 -1.833458
v 1.222027 1.705266 -1.582044
v 1.222027 2.027863 -1.749870
v 1.222027 2.027863 -1.665632
v 1.222027 1.582237 -1.766935
v 1.222027 1.582237 -1.648567
v 1.222027 2.027863 -1.623513
v 1.222027 1.591883 -1.589382
v 1.222027 1.591883 -1.826120
v 1.222027 2.027863 -1.791989
v 1.222027 1.578638 -1.707751
v 1.222027 2.027863 -1.707751
v 1.222027 1.933618 -1.794324
v 1.222027 1.933618 -1.600378
v 1.222027 1.952277 -1.792517
v 1.222027 1.952277 -1.600849
v 1.222027 1.914959 -1.603879
v 1.222027 1.914959 -1.792279
vn -0.9902 -0.1394 -0.0000
vn -0.0000 -0.6063 -0.7953
vn 0.9902 -0.1394 -0.0000
vn -0.0180 -0.4515 0.8921
vn -0.0000 -0.9618 0.2737
vn -0.0000 1.0000 -0.0000
vn -0.0000 0.3058 0.9521
vn -0.0303 0.0323 0.9990
vn -0.1389 0.3323 0.9329
vn 0.9990 0.0444 -0.0000
vn 0.9986 -0.0533 -0.0000
vn 0.5653 0.8249 -0.0000
vn -0.0000 0.2914 -0.9566
vn -0.0000 0.1447 -0.9895
vn -0.0000 0.0964 -0.9953
vn -0.9990 0.0444 -0.0000
vn -0.9986 -0.0533 -0.0000
vn -0.5653 0.8249 -0.0000
vn -0.9976 0.0676 0.0113
vn -0.0000 0.4731 -0.8810
vn 0.9976 0.0676 -0.0113
vn -0.0000 0.4731 0.8810
vn 0.9980 0.0629 0.0060
vn 0.9982 0.0606 -0.0022
vn -0.9980 0.0629 -0.0060
vn -0.9982 0.0606 0.0022
vn -0.0000 -0.9870 -0.1609
vn -0.0000 -0.9982 0.0607
vn -0.9976 0.0676 -0.0113
vn 0.9980 0.0629 -0.0060
vn -0.0000 -0.9870 0.1609
vn -0.0000 -0.9618 -0.2737
vn 0.9976 0.0676 0.0113
vn -0.9980 0.0629 0.0060
vn -0.0000 -0.9982 -0.0607
vn -0.9982 0.0606 -0.0022
vn 0.9982 0.0606 0.0022
vn -0.9563 -0.2923 -0.0000
vn 0.9563 -0.2923 -0.0000
vn -0.0000 -0.1090 -0.9940
vn -0.1793 -0.2078 0.9616
vn -0.9721 0.2344 -0.0000
vn 0.9721 0.2344 -0.0000
vn -0.1810 0.0466 0.9824
vn -0.1366 -0.4614 0.8766
vn 0.5564 -0.8309 -0.0000
vn -0.5564 -0.8309 -0.0000
vn 0.1366 -0.4614 0.8766
vn 0.1810 0.0466 0.9824
vn 0.1793 -0.2078 0.9616
vn 0.1389 0.3323 0.9329
vn 0.0303 0.0323 0.9990
vn 0.0180 -0.4515 0.8921
vt 0.833218 0.000346
vt 0.833218 0.666090
vt 0.999654 0.166782
vt 0.666782 0.000346
vt 0.500346 0.166782
vt 0.666782 0.666090
vt 0.999654 0.333218
vt 0.833218 0.499654
vt 0.500346 0.333218
vt 0.666782 0.499654
vt 0.833218 0.166782
vt 0.666782 0.166782
vt 0.833218 0.333218
vt 0.666782 0.333218
vt 0.791609 0.000346
vt 0.791609 0.666090
vt 0.750000 0.000346
vt 0.750000 0.666090
vt 0.708391 0.000346
vt 0.708391 0.666090
vt 0.708391 0.499654
vt 0.750000 0.499654
vt 0.791609 0.499654
vt 0.708391 0.333218
vt 0.750000 0.333218
vt 0.791609 0.333218
vt 0.708391 0.166782
vt 0.750000 0.166782
vt 0.791609 0.166782
vt 0.812414 0.499654
vt 0.812414 0.333218
vt 0.812414 0.166782
vt 0.812414 0.000346
vt 0.812414 0.666090
vt 0.833218 0.555133
vt 0.999654 0.277739
vt 0.833218 0.610611
vt 0.999654 0.222261
vt 0.500346 0.222261
vt 0.666782 0.610611
vt 0.666782 0.555133
vt 0.500346 0.277739
vt 0.833218 0.222261
vt 0.833218 0.277739
vt 0.666782 0.277739
vt 0.666782 0.222261
vt 0.791609 0.277739
vt 0.791609 0.222261
vt 0.750000 0.277739
vt 0.750000 0.222261
vt 0.708391 0.277739
vt 0.708391 0.222261
vt 0.791609 0.610611
vt 0.791609 0.555133
vt 0.750000 0.610611
vt 0.750000 0.555133
vt 0.708391 0.610611
vt 0.708391 0.555133
vt 0.812414 0.610611
vt 0.812414 0.555133
vt 0.812414 0.277739
vt 0.812414 0.222261
vt 0.833218 0.638351
vt 0.999654 0.194521
vt 0.666782 0.194521
vt 0.791609 0.194521
vt 0.750000 0.194521
vt 0.708391 0.194521
vt 0.812414 0.194521
vt 0.666782 0.638351
vt 0.500346 0.194521
vt 0.833218 0.194521
vt 0.791609 0.638351
vt 0.750000 0.638351
vt 0.708391 0.638351
vt 0.812414 0.638351
vt 0.500346 0.305479
vt 0.666782 0.527393
vt 0.833218 0.305479
vt 0.791609 0.527393
vt 0.750000 0.527393
vt 0.708391 0.527393
vt 0.812414 0.527393
vt 0.833218 0.527393
vt 0.999654 0.305479
vt 0.666782 0.305479
vt 0.791609 0.305479
vt 0.750000 0.305479
vt 0.708391 0.305479
vt 0.812414 0.305479
vt 0.833218 0.582872
vt 0.999654 0.250000
vt 0.666782 0.582872
vt 0.500346 0.250000
vt 0.833218 0.250000
vt 0.666782 0.250000
vt 0.791609 0.250000
vt 0.750000 0.250000
vt 0.708391 0.250000
vt 0.791609 0.582872
vt 0.750000 0.582872
vt 0.708391 0.582872
vt 0.812414 0.582872
vt 0.812414 0.250000
vt 0.729195 0.666090
vt 0.729196 0.000346
vt 0.729195 0.499654
vt 0.729196 0.333218
vt 0.729196 0.166782
vt 0.729195 0.610611
vt 0.729196 0.555133
vt 0.729196 0.277739
vt 0.729196 0.222261
vt 0.729196 0.638351
vt 0.729196 0.194521
vt 0.729196 0.305479
vt 0.729195 0.527393
vt 0.729196 0.250000
vt 0.729196 0.582872
vt 0.718793 0.666090
vt 0.718793 0.000346
vt 0.718793 0.499654
vt 0.718793 0.333218
vt 0.718793 0.166782
vt 0.718793 0.610611
vt 0.718793 0.555133
vt 0.718793 0.277739
vt 0.718793 0.222261
vt 0.718793 0.638351
vt 0.718793 0.194521
vt 0.718793 0.305479
vt 0.718793 0.527393
vt 0.718793 0.250000
vt 0.718793 0.582872
vt 0.739598 0.499654
vt 0.739598 0.333218
vt 0.739598 0.166782
vt 0.739598 0.610611
vt 0.739598 0.555133
vt 0.739598 0.277739
vt 0.739598 0.222261
vt 0.739598 0.638351
vt 0.739598 0.194521
vt 0.739598 0.305479
vt 0.739598 0.527393
vt 0.739598 0.250000
vt 0.739598 0.582872
vt 0.739598 0.000346
vt 0.739598 0.666090
vt 0.916436 0.333218
vt 0.833218 0.416436
vt 0.583564 0.333218
vt 0.666782 0.416436
vt 0.833218 0.083564
vt 0.916436 0.166782
vt 0.583564 0.166782
vt 0.666782 0.083564
vt 0.791609 0.083564
vt 0.750000 0.083564
vt 0.708391 0.083564
vt 0.791609 0.416436
vt 0.750000 0.416436
vt 0.708391 0.416436
vt 0.812414 0.416436
vt 0.812414 0.083564
vt 0.583564 0.277739
vt 0.583564 0.222261
vt 0.916436 0.277739
vt 0.916436 0.222261
vt 0.583564 0.194521
vt 0.916436 0.194521
vt 0.916436 0.305479
vt 0.583564 0.305479
vt 0.916436 0.250000
vt 0.583564 0.250000
vt 0.729196 0.416436
vt 0.729196 0.083564
vt 0.718793 0.416436
vt 0.718793 0.083564
vt 0.739598 0.083564
vt 0.739598 0.416436
s 0
f 65/82/1 61/78/1 4/10/1 12/21/1
f 136/163/2 128/153/2 8/14/2 15/24/2
f 53/68/3 50/65/3 6/12/3 18/27/3
f 133/160/4 130/157/4 2/4/4 11/19/4
f 144/171/5 56/72/5 5/11/5 129/155/5
f 143/170/6 55/71/6 2/5/6 130/156/6
f 138/165/7 131/158/7 9/15/7 24/33/7
f 131/158/8 132/159/8 10/17/8 9/15/8
f 152/179/9 133/160/9 11/19/9 99/121/9
f 54/69/10 51/66/10 20/29/10 23/32/10
f 51/66/11 52/67/11 19/28/11 20/29/11
f 108/130/12 53/68/12 18/27/12 102/124/12
f 137/164/13 134/161/13 17/26/13 22/31/13
f 134/161/14 135/162/14 16/25/14 17/26/14
f 151/178/15 136/163/15 15/24/15 101/123/15
f 66/83/16 63/80/16 14/23/16 21/30/16
f 63/80/17 64/81/17 13/22/17 14/23/17
f 110/132/18 65/82/18 12/21/18 100/122/18
f 67/84/19 66/83/19 21/30/19 3/8/19
f 127/151/20 137/164/20 22/31/20 7/13/20
f 56/72/21 54/69/21 23/32/21 5/11/21
f 129/154/22 138/165/22 24/33/22 1/1/22
f 62/79/23 72/90/23 47/61/23 30/44/23
f 75/95/24 84/104/24 48/62/24 29/43/24
f 49/63/25 60/76/25 45/59/25 26/37/25
f 73/91/26 83/103/26 46/60/26 25/35/26
f 107/129/18 59/75/18 43/57/18 103/125/18
f 112/134/18 82/102/18 44/58/18 104/126/18
f 57/73/17 58/74/17 41/55/17 39/53/17
f 80/100/17 81/101/17 42/56/17 40/54/17
f 60/76/16 57/73/16 39/53/16 45/59/16
f 83/103/16 80/100/16 40/54/16 46/60/16
f 109/131/12 71/89/12 37/51/12 105/127/12
f 111/133/12 79/99/12 38/52/12 106/128/12
f 69/87/11 70/88/11 35/49/11 33/47/11
f 77/97/11 78/98/11 36/50/11 34/48/11
f 72/90/10 69/87/10 33/47/10 47/61/10
f 84/104/10 77/97/10 34/48/10 48/62/10
f 146/173/6 61/77/6 28/42/6 139/166/6
f 148/175/6 74/94/6 27/39/6 140/167/6
f 145/172/27 62/79/27 30/44/27 141/168/27
f 147/174/28 75/95/28 29/43/28 142/169/28
f 71/89/3 68/86/3 31/45/3 37/51/3
f 79/99/3 76/96/3 32/46/3 38/52/3
f 59/75/1 55/70/1 27/40/1 43/57/1
f 82/102/1 74/93/1 28/41/1 44/58/1
f 11/20/1 2/6/1 55/70/1 59/75/1
f 24/34/16 9/16/16 57/73/16 60/76/16
f 9/16/17 10/18/17 58/74/17 57/73/17
f 99/120/18 11/20/18 59/75/18 107/129/18
f 1/2/29 24/34/29 60/76/29 49/63/29
f 29/43/30 48/62/30 54/69/30 56/72/30
f 106/128/12 38/52/12 53/68/12 108/130/12
f 34/48/11 36/50/11 52/67/11 51/66/11
f 48/62/10 34/48/10 51/66/10 54/69/10
f 140/167/6 27/39/6 55/71/6 143/170/6
f 142/169/31 29/43/31 56/72/31 144/171/31
f 38/52/3 32/46/3 50/65/3 53/68/3
f 15/24/3 8/14/3 68/86/3 71/89/3
f 127/150/32 7/13/32 62/79/32 145/172/32
f 128/152/6 4/9/6 61/77/6 146/173/6
f 22/31/10 17/26/10 69/87/10 72/90/10
f 17/26/11 16/25/11 70/88/11 69/87/11
f 101/123/12 15/24/12 71/89/12 109/131/12
f 7/13/33 22/31/33 72/90/33 62/79/33
f 25/35/34 46/60/34 66/83/34 67/84/34
f 104/126/18 44/58/18 65/82/18 110/132/18
f 40/54/17 42/56/17 64/81/17 63/80/17
f 46/60/16 40/54/16 63/80/16 66/83/16
f 44/58/1 28/41/1 61/78/1 65/82/1
f 43/57/1 27/40/1 74/93/1 82/102/1
f 37/51/3 31/45/3 76/96/3 79/99/3
f 141/168/35 30/44/35 75/95/35 147/174/35
f 139/166/6 28/42/6 74/94/6 148/175/6
f 47/61/10 33/47/10 77/97/10 84/104/10
f 33/47/11 35/49/11 78/98/11 77/97/11
f 105/127/12 37/51/12 79/99/12 111/133/12
f 45/59/16 39/53/16 80/100/16 83/103/16
f 39/53/17 41/55/17 81/101/17 80/100/17
f 103/125/18 43/57/18 82/102/18 112/134/18
f 26/37/36 45/59/36 83/103/36 73/91/36
f 30/44/37 47/61/37 84/104/37 75/95/37
f 116/138/38 89/110/38 98/119/38 125/147/38
f 118/140/39 91/112/39 97/118/39 124/146/39
f 117/139/38 90/111/38 96/117/38 123/145/38
f 114/136/39 87/108/39 95/116/39 122/144/39
f 119/141/39 92/113/39 94/115/39 121/143/39
f 126/149/38 85/105/38 93/114/38 120/142/38
f 124/146/39 97/118/39 92/113/39 119/141/39
f 122/144/39 95/116/39 91/112/39 118/140/39
f 125/147/38 98/119/38 90/111/38 117/139/38
f 120/142/38 93/114/38 89/110/38 116/138/38
f 123/145/38 96/117/38 86/107/38 113/135/38
f 154/181/40 149/176/40 87/108/40 114/136/40
f 121/143/39 94/115/39 88/109/39 115/137/39
f 153/180/41 150/177/41 85/106/41 126/148/41
f 89/110/42 103/125/42 112/134/42 98/119/42
f 91/112/43 105/127/43 111/133/43 97/118/43
f 90/111/42 104/126/42 110/132/42 96/117/42
f 87/108/43 101/123/43 109/131/43 95/116/43
f 92/113/43 106/128/43 108/130/43 94/115/43
f 85/105/42 99/120/42 107/129/42 93/114/42
f 97/118/43 111/133/43 106/128/43 92/113/43
f 95/116/43 109/131/43 105/127/43 91/112/43
f 98/119/42 112/134/42 104/126/42 90/111/42
f 93/114/42 107/129/42 103/125/42 89/110/42
f 96/117/42 110/132/42 100/122/42 86/107/42
f 149/176/15 151/178/15 101/123/15 87/108/15
f 94/115/43 108/130/43 102/124/43 88/109/43
f 150/177/44 152/179/44 99/121/44 85/106/44
f 132/159/45 153/180/45 126/148/45 10/17/45
f 52/67/46 121/143/46 115/137/46 19/28/46
f 135/162/40 154/181/40 114/136/40 16/25/40
f 64/81/47 123/145/47 113/135/47 13/22/47
f 58/74/47 120/142/47 116/138/47 41/55/47
f 81/101/47 125/147/47 117/139/47 42/56/47
f 70/88/46 122/144/46 118/140/46 35/49/46
f 78/98/46 124/146/46 119/141/46 36/50/46
f 10/18/47 126/149/47 120/142/47 58/74/47
f 36/50/46 119/141/46 121/143/46 52/67/46
f 16/25/46 114/136/46 122/144/46 70/88/46
f 42/56/47 117/139/47 123/145/47 64/81/47
f 35/49/46 118/140/46 124/146/46 78/98/46
f 41/55/47 116/138/47 125/147/47 81/101/47
f 13/22/40 113/135/40 154/181/40 135/162/40
f 19/28/48 115/137/48 153/180/48 132/159/48
f 88/109/49 102/124/49 152/179/49 150/177/49
f 86/107/15 100/122/15 151/178/15 149/176/15
f 115/137/50 88/109/50 150/177/50 153/180/50
f 113/135/40 86/107/40 149/176/40 154/181/40
f 31/45/6 139/166/6 148/175/6 76/96/6
f 25/36/35 141/168/35 147/174/35 73/92/35
f 8/14/6 128/152/6 146/173/6 68/86/6
f 3/7/32 127/150/32 145/172/32 67/85/32
f 26/38/31 142/169/31 144/171/31 49/64/31
f 32/46/6 140/167/6 143/170/6 50/65/6
f 73/92/28 147/174/28 142/169/28 26/38/28
f 67/85/27 145/172/27 141/168/27 25/36/27
f 76/96/6 148/175/6 140/167/6 32/46/6
f 68/86/6 146/173/6 139/166/6 31/45/6
f 5/11/22 23/32/22 138/165/22 129/154/22
f 3/8/20 21/30/20 137/164/20 127/151/20
f 100/122/15 12/21/15 136/163/15 151/178/15
f 14/23/14 13/22/14 135/162/14 134/161/14
f 21/30/13 14/23/13 134/161/13 137/164/13
f 102/124/51 18/27/51 133/160/51 152/179/51
f 20/29/52 19/28/52 132/159/52 131/158/52
f 23/32/7 20/29/7 131/158/7 138/165/7
f 50/65/6 143/170/6 130/156/6 6/12/6
f 49/64/5 144/171/5 129/155/5 1/3/5
f 18/27/53 6/12/53 130/157/53 133/160/53
f 12/21/2 4/10/2 128/153/2 136/163/2
o Cube
v 1.191174 1.909171 -1.816067
v 1.191174 1.961385 -1.816067
v 1.191174 1.909171 -2.921369
v 1.191174 1.961385 -2.921369
v 1.249122 1.909171 -1.816067
v 1.249122 1.961385 -1.816067
v 1.249122 1.909171 -2.921369
v 1.249122 1.961385 -2.921369
v 1.193566 1.911325 -2.324469
v 1.184825 1.935278 -1.704657
v 1.193566 1.959230 -2.324469
v 1.184825 1.935278 -2.944281
v 1.220148 1.903450 -2.944281
v 1.220148 1.967106 -2.944281
v 1.255471 1.935278 -2.944281
v 1.246730 1.911325 -2.324469
v 1.246730 1.959230 -2.324469
v 1.255471 1.935278 -1.704657
v 1.220148 1.903450 -1.704657
v 1.220148 1.967106 -1.704657
v 1.183539 1.935278 -2.324469
v 1.220148 1.935278 -2.950888
v 1.256758 1.935278 -2.324469
v 1.220148 1.935278 -1.696368
v 1.220148 1.902290 -2.324469
v 1.220148 1.968266 -2.324469
vn -0.9514 -0.3079 -0.0015
vn -0.9514 0.3079 -0.0015
vn -0.9506 0.3103 0.0014
vn -0.9506 -0.3103 0.0014
vn -0.4054 -0.4499 -0.7958
vn -0.4054 0.4499 -0.7958
vn 0.4054 0.4499 -0.7958
vn 0.4054 -0.4499 -0.7958
vn 0.9506 -0.3103 0.0014
vn 0.9506 0.3103 0.0014
vn 0.9514 0.3079 -0.0015
vn 0.9514 -0.3079 -0.0015
vn 0.6368 -0.7067 0.3083
vn 0.6368 0.7067 0.3083
vn -0.6368 0.7067 0.3083
vn -0.6368 -0.7067 0.3083
vn -0.2562 -0.9666 0.0013
vn 0.2562 -0.9666 0.0013
vn 0.2541 -0.9672 -0.0014
vn -0.2541 -0.9672 -0.0014
vn 0.2562 0.9666 0.0013
vn -0.2562 0.9666 0.0013
vn -0.2541 0.9672 -0.0014
vn 0.2541 0.9672 -0.0014
vt 0.333218 0.666090
vt 0.333218 0.000346
vt 0.499654 0.166782
vt 0.166782 0.666090
vt 0.166782 0.000346
vt 0.000346 0.166782
vt 0.333218 0.499654
vt 0.499654 0.333218
vt 0.166782 0.499654
vt 0.000346 0.333218
vt 0.333218 0.166782
vt 0.166782 0.166782
vt 0.333218 0.333218
vt 0.166782 0.333218
vt 0.333218 0.582872
vt 0.499654 0.250000
vt 0.250000 0.666090
vt 0.250000 0.000346
vt 0.166782 0.582872
vt 0.000346 0.250000
vt 0.250000 0.499654
vt 0.333218 0.416436
vt 0.416436 0.333218
vt 0.166782 0.416436
vt 0.083564 0.333218
vt 0.250000 0.333218
vt 0.333218 0.250000
vt 0.166782 0.250000
vt 0.250000 0.166782
vt 0.333218 0.083564
vt 0.416436 0.166782
vt 0.166782 0.083564
vt 0.083564 0.166782
vt 0.250000 0.582872
vt 0.250000 0.416436
vt 0.250000 0.250000
vt 0.250000 0.083564
vt 0.416436 0.250000
vt 0.083564 0.250000
s 0
f 155/182/54 164/198/54 175/215/54 163/196/54
f 164/198/55 156/185/55 165/200/55 175/215/55
f 175/215/56 165/200/56 158/190/56 166/202/56
f 163/196/57 175/215/57 166/202/57 157/188/57
f 157/188/58 166/202/58 176/216/58 167/203/58
f 166/202/59 158/190/59 168/205/59 176/216/59
f 176/216/60 168/205/60 162/195/60 169/207/60
f 167/203/61 176/216/61 169/207/61 161/194/61
f 161/194/62 169/207/62 177/217/62 170/208/62
f 169/207/63 162/195/63 171/209/63 177/217/63
f 177/217/64 171/209/64 160/193/64 172/210/64
f 170/208/65 177/217/65 172/210/65 159/192/65
f 159/192/66 172/210/66 178/218/66 173/211/66
f 172/210/67 160/193/67 174/213/67 178/218/67
f 178/218/68 174/213/68 156/186/68 164/199/68
f 173/211/69 178/218/69 164/199/69 155/183/69
f 157/189/70 167/204/70 179/219/70 163/197/70
f 167/204/71 161/194/71 170/208/71 179/219/71
f 179/219/72 170/208/72 159/192/72 173/212/72
f 163/197/73 179/219/73 173/212/73 155/184/73
f 162/195/74 168/206/74 180/220/74 171/209/74
f 168/206/75 158/191/75 165/201/75 180/220/75
f 180/220/76 165/201/76 156/187/76 174/214/76
f 171/209/77 180/220/77 174/214/77 160/193/77
